<?xml version="1.0" encoding="UTF-8" standalone="no"?>
<!DOCTYPE svg PUBLIC "-//W3C//DTD SVG 1.1//EN" "http://www.w3.org/Graphics/SVG/1.1/DTD/svg11.dtd">
<svg width="100%" height="100%" viewBox="0 0 1080 1080" version="1.1" xmlns="http://www.w3.org/2000/svg" xmlns:xlink="http://www.w3.org/1999/xlink" xml:space="preserve" xmlns:serif="http://www.serif.com/" style="fill-rule:evenodd;clip-rule:evenodd;stroke-linejoin:round;stroke-miterlimit:2;">
    <g transform="matrix(1.10204,0,0,1.10204,-55.102,-55.102)">
        <g transform="matrix(1.20988,0,0,1.20988,-156.171,-72.6946)">
            <path d="M980.406,506.41C980.406,282.735 799.081,101.411 575.406,101.411C575.406,101.411 575.406,101.411 575.406,101.411C351.731,101.411 170.406,282.735 170.406,506.411C170.406,506.411 170.406,506.411 170.406,506.411C170.406,730.086 351.731,911.41 575.406,911.41C575.406,911.41 575.406,911.41 575.406,911.41C799.081,911.41 980.406,730.086 980.406,506.411L980.406,506.41Z" style="fill:rgb(100,100,238);"/>
        </g>
        <g transform="matrix(0.875,0,0,0.875,67.5,-77.9266)">
            <g>
                <g transform="matrix(2.05057,0,0,0.313035,-426.922,287.895)">
                    <path d="M508.113,409.88C508.113,277.647 491.725,170.29 471.538,170.29C451.352,170.29 434.963,277.647 434.963,409.88C434.963,542.113 451.352,649.47 471.538,649.47C491.725,649.47 508.113,542.113 508.113,409.88Z" style="fill:white;"/>
                </g>
                <g transform="matrix(1,0,0,1,-15,241.202)">
                    <path d="M615.926,780C601.607,780 590,768.393 590,754.074L590,325.926C590,319.05 587.269,312.456 582.406,307.594C577.544,302.731 570.95,300 564.074,300L414.999,300C401.192,300 390,311.192 390,324.999C390,325 390,325 390,325.001C390,338.808 401.192,350 414.999,350C437.709,350 471.079,350 494.074,350C508.393,350 520,361.607 520,375.926C520,452.559 520,677.441 520,754.074C520,768.393 508.393,780 494.074,780L398.517,780C391.887,780 385.529,782.634 380.841,787.322C376.152,792.01 373.519,798.369 373.519,804.999C373.519,805 373.519,805 373.519,805.001C373.519,811.631 376.152,817.99 380.841,822.678C385.529,827.366 391.887,830 398.517,830L711.483,830C718.113,830 724.471,827.366 729.159,822.678C733.848,817.99 736.481,811.631 736.481,805.001L736.481,804.999C736.481,798.369 733.848,792.01 729.159,787.322C724.471,782.634 718.113,780 711.483,780C684.855,780 642.903,780 615.926,780Z" style="fill:white;"/>
                </g>
            </g>
        </g>
    </g>
</svg>
